<?xml version="1.0" encoding="iso-8859-1"?>
<!-- Generator: Adobe Illustrator 19.0.0, SVG Export Plug-In . SVG Version: 6.00 Build 0)  -->
<svg version="1.1" id="Layer_1" xmlns="http://www.w3.org/2000/svg" xmlns:xlink="http://www.w3.org/1999/xlink" x="0px" y="0px"
	 viewBox="0 0 502.101 502.101" style="enable-background:new 0 0 502.101 502.101;" xml:space="preserve">
<g>
	<path style="fill:#F7910B;" d="M502.101,310.251c0,104-95.2,188-242.4,188s-243.2-84-243.2-188s95.2-260,243.2-260
		S502.101,206.251,502.101,310.251z"/>
	<path style="fill:#F7910B;" d="M502.101,310.251c0,104-95.2,156-242.4,156s-243.2-52-243.2-156s95.2-276,243.2-276
		S502.101,206.251,502.101,310.251z"/>
</g>
<g>
	<path style="fill:#F9A908;" d="M259.701,34.251c147.2,0,242.4,172,242.4,276s-95.2,156-242.4,156"/>
	<path style="fill:#F9A908;" d="M502.101,310.251c0,104-95.2,156-242.4,156s-243.2-52-243.2-156s95.2-260,243.2-260
		S502.101,206.251,502.101,310.251z"/>
</g>
<path style="fill:#F9C55D;" d="M16.501,310.251c0-104,95.2-260,242.4-260"/>
<path style="fill:#F7910B;" d="M259.701,50.251c147.2,0,242.4,156,242.4,260s-95.2,188-242.4,188"/>
<path style="fill:#EA7103;" d="M259.701,50.251c147.2,0,242.4,156,242.4,260"/>
<path style="fill:#ED7E11;" d="M401.301,387.851c0,20.8-42.4,37.6-95.2,37.6s-95.2-16.8-95.2-37.6"/>
<path style="fill:#02243E;" d="M307.701,398.251c-39.2,0-78.4-5.6-96-16.8c-4-2.4-5.6-8-3.2-12c2.4-4,8-5.6,12-3.2
	c30.4,18.4,144,18.4,174.4,0c4-2.4,9.6-1.6,12,3.2s1.6,9.6-3.2,12C386.101,392.651,346.901,398.251,307.701,398.251z"/>
<g>
	<circle style="fill:#F7910B;" cx="86.101" cy="286.251" r="4.8"/>
	<circle style="fill:#F7910B;" cx="50.101" cy="302.251" r="8.8"/>
	<circle style="fill:#F7910B;" cx="74.101" cy="270.251" r="1.6"/>
	<circle style="fill:#F7910B;" cx="110.901" cy="284.651" r="1.6"/>
</g>
<g>
	<circle style="fill:#F9A908;" cx="471.701" cy="309.451" r="5.6"/>
	<circle style="fill:#F9A908;" cx="443.701" cy="299.851" r="1.6"/>
	<circle style="fill:#F9A908;" cx="477.301" cy="355.851" r="2.4"/>
	<circle style="fill:#F9A908;" cx="446.901" cy="386.251" r="10.4"/>
	<circle style="fill:#F9A908;" cx="454.901" cy="323.051" r="4.8"/>
</g>
<g>
	<circle style="fill:#F7910B;" cx="78.101" cy="318.251" r="4"/>
	<circle style="fill:#F7910B;" cx="83.701" cy="251.051" r="3.2"/>
</g>
<g>
	<circle style="fill:#F9A908;" cx="42.101" cy="140.651" r="8.8"/>
	<circle style="fill:#F9A908;" cx="67.701" cy="112.651" r="4.8"/>
	<circle style="fill:#F9A908;" cx="477.301" cy="159.851" r="1.6"/>
	<circle style="fill:#F9A908;" cx="470.901" cy="136.651" r="6.4"/>
	<circle style="fill:#F9A908;" cx="490.901" cy="140.651" r="4"/>
	<circle style="fill:#F9A908;" cx="51.701" cy="164.651" r="4.8"/>
</g>
<g>
	<circle style="fill:#D87703;" cx="226.901" cy="301.451" r="28"/>
	<circle style="fill:#D87703;" cx="409.301" cy="301.451" r="28"/>
</g>
<circle style="fill:#1E4784;" cx="226.901" cy="293.451" r="28"/>
<path style="fill:#00233F;" d="M226.901,265.451c15.2,0,28,12.8,28,28s-12.8,28-28,28"/>
<circle style="fill:#1E4784;" cx="409.301" cy="293.451" r="28"/>
<path style="fill:#00233F;" d="M409.301,265.451c15.2,0,28,12.8,28,28s-12.8,28-28,28"/>
<g>
	<path style="fill:#19BCA4;" d="M241.301,127.051c-14.4,0.8-25.6,6.4-25.6,13.6l52-2.4
		C267.701,131.051,255.701,126.251,241.301,127.051z"/>
	<path style="fill:#19BCA4;" d="M395.701,127.051c-14.4-0.8-26.4,4.8-26.4,11.2l52,2.4
		C422.101,133.451,410.101,127.051,395.701,127.051z"/>
</g>
<g>
	<path style="fill:#109DA0;" d="M242.101,143.051c14.4-0.8,26.4,2.4,26.4-4.8l-52,2.4
		C216.501,147.051,227.701,143.051,242.101,143.051z"/>
	<path style="fill:#109DA0;" d="M394.901,143.051c14.4,0.8,26.4,4.8,26.4-2.4l-52-2.4
		C369.301,145.451,380.501,142.251,394.901,143.051z"/>
</g>
<path style="fill:#F9C55D;" d="M222.901,316.651c-34.4,0-62.4,8-62.4,17.6s28,5.6,62.4,5.6s62.4,4.8,62.4-5.6
	C285.301,324.651,257.301,316.651,222.901,316.651z"/>
<path style="fill:#F9A908;" d="M414.101,316.651c-34.4,0-62.4,8-62.4,17.6s28,5.6,62.4,5.6s62.4,4.8,62.4-5.6
	C476.501,324.651,449.301,316.651,414.101,316.651z"/>
<path style="fill:#FFFFFF;" d="M237.301,142.251c0-48-46.4-86.4-103.2-86.4s-103.2,38.4-103.2,86.4c0,12.8,3.2,24.8,8.8,36l0,0
	l43.2,56.8l0,0v24.8c0,24,23.2,43.2,52,43.2s52-19.2,52-43.2v-24.8l0,0l41.6-56.8l0,0
	C234.101,167.051,237.301,155.051,237.301,142.251z"/>
<path style="fill:#F9F3DC;" d="M134.901,303.051c28.8,0,52-19.2,52-43.2v-24.8l0,0l41.6-56.8l0,0c5.6-11.2,8.8-23.2,8.8-36
	c0-48-46.4-86.4-103.2-86.4"/>
<path style="fill:#6D6DB2;" d="M98.101,285.451v34.4c0,7.2,5.6,13.6,13.6,13.6h46.4c7.2,0,13.6-5.6,13.6-13.6v-34.4H98.101z"/>
<path style="fill:#4C4C8C;" d="M158.101,333.451c7.2,0,13.6-5.6,13.6-13.6v-34.4h-72.8"/>
<g>
	<path style="fill:#7777BF;" d="M170.101,297.451c0,1.6-0.8,2.4-2.4,2.4h-66.4c-1.6,0-2.4-0.8-2.4-2.4l0,0c0-1.6,0.8-2.4,2.4-2.4
		h66.4C169.301,294.251,170.101,295.851,170.101,297.451L170.101,297.451z"/>
	<path style="fill:#7777BF;" d="M170.101,309.451c0,1.6-0.8,2.4-2.4,2.4h-66.4c-1.6,0-2.4-0.8-2.4-2.4l0,0c0-1.6,0.8-2.4,2.4-2.4
		h66.4C169.301,307.051,170.101,308.651,170.101,309.451L170.101,309.451z"/>
	<path style="fill:#7777BF;" d="M170.101,322.251c0,1.6-0.8,2.4-2.4,2.4h-66.4c-1.6,0-2.4-0.8-2.4-2.4l0,0c0-1.6,0.8-2.4,2.4-2.4
		h66.4C169.301,319.851,170.101,320.651,170.101,322.251L170.101,322.251z"/>
</g>
<g>
	<circle style="fill:#F9C55D;" cx="96.501" cy="163.851" r="9.6"/>
	<circle style="fill:#F9C55D;" cx="134.901" cy="163.851" r="9.6"/>
	<circle style="fill:#F9C55D;" cx="173.301" cy="163.851" r="9.6"/>
</g>
<g>
	<path style="fill:#FFFFFF;" d="M142.901,27.051c0,4.8-4,8-8,8l0,0c-4.8,0-8-4-8-8v-15.2c0-4.8,4-8,8-8l0,0c4.8,0,8,4,8,8V27.051z"
		/>
	<path style="fill:#FFFFFF;" d="M56.501,49.451c3.2,3.2,3.2,8.8,0,12l0,0c-3.2,3.2-8.8,3.2-12,0l-10.4-11.2c-3.2-3.2-3.2-8.8,0-12
		l0,0c3.2-3.2,8.8-3.2,12,0L56.501,49.451z"/>
	<path style="fill:#FFFFFF;" d="M25.301,84.651c4,1.6,6.4,6.4,4.8,10.4l0,0c-1.6,4-6.4,6.4-10.4,4.8l-14.4-4.8
		c-4-1.6-6.4-6.4-4.8-10.4l0,0c1.6-4,6.4-6.4,10.4-4.8L25.301,84.651z"/>
	<path style="fill:#FFFFFF;" d="M99.701,29.451c1.6,4,0,8.8-4.8,10.4l0,0c-4,1.6-8.8,0-10.4-4.8l-5.6-14.4c-1.6-4,0-8.8,4.8-10.4
		l0,0c4-1.6,8.8,0,10.4,4.8L99.701,29.451z"/>
	<path style="fill:#FFFFFF;" d="M213.301,49.451c-3.2,3.2-3.2,8.8,0,12l0,0c3.2,3.2,8.8,3.2,12,0l11.2-11.2c3.2-3.2,3.2-8.8,0-12
		l0,0c-3.2-3.2-8.8-3.2-12,0L213.301,49.451z"/>
	<path style="fill:#FFFFFF;" d="M244.501,84.651c-4,1.6-6.4,6.4-4.8,10.4l0,0c1.6,4,6.4,6.4,10.4,4.8l14.4-4.8
		c4-1.6,6.4-6.4,4.8-10.4l0,0c-1.6-4-6.4-6.4-10.4-4.8L244.501,84.651z"/>
	<path style="fill:#FFFFFF;" d="M169.301,29.451c-1.6,4,0,8.8,4.8,10.4l0,0c4,1.6,8.8,0,10.4-4.8l5.6-14.4c1.6-4,0-8.8-4.8-10.4l0,0
		c-4-1.6-8.8,0-10.4,4.8L169.301,29.451z"/>
</g>
<g>
</g>
<g>
</g>
<g>
</g>
<g>
</g>
<g>
</g>
<g>
</g>
<g>
</g>
<g>
</g>
<g>
</g>
<g>
</g>
<g>
</g>
<g>
</g>
<g>
</g>
<g>
</g>
<g>
</g>
</svg>
